<svg xmlns="http://www.w3.org/2000/svg" width="200" height="200" viewBox="0 0 200 200"><defs><style>.a{fill:#fff;}</style></defs><g transform="translate(1.001)"><path class="a" d="M145.861,0H54.137A54.2,54.2,0,0,0,0,54.138v91.725A54.2,54.2,0,0,0,54.137,200h91.725A54.2,54.2,0,0,0,200,145.863V54.138A54.2,54.2,0,0,0,145.861,0ZM100,154.686A54.686,54.686,0,1,1,154.685,100,54.747,54.747,0,0,1,100,154.686Zm55.994-96.475a16.16,16.16,0,1,1,16.161-16.159A16.176,16.176,0,0,1,155.993,58.211Zm0,0" transform="translate(-1 0)"/><path class="a" d="M186.02,146.02a40,40,0,1,0,40,40A40.046,40.046,0,0,0,186.02,146.02Zm0,0" transform="translate(-86.976 -85.975)"/><path class="a" d="M392.992,96.3a5,5,0,1,0,5,5A5.006,5.006,0,0,0,392.992,96.3Zm0,0" transform="translate(-237.505 -59.46)"/></g></svg>