<svg xmlns="http://www.w3.org/2000/svg" width="200" height="200" viewBox="0 0 200 200"><defs><style>.a{fill:#fff;}</style></defs><path class="a" d="M100,.5C44.875.5,0,38.744,0,85.746c0,42.1,35.583,77.367,83.625,84.072,3.258.722,7.692,2.261,8.817,5.165,1,2.635.658,6.7.317,9.452l-1.367,8.922c-.375,2.635-2,10.374,8.742,5.644,10.758-4.713,57.633-35.688,78.633-61.036C193.133,121.442,200,104.511,200,85.746,200,38.744,155.125.5,100,.5ZM60.858,113.694H40.975a5.418,5.418,0,0,1-5.25-5.5V66.441a5.256,5.256,0,1,1,10.5,0v36.236H60.858a5.516,5.516,0,0,1,0,11.018Zm20.55-5.5a5.248,5.248,0,1,1-10.483,0V66.441a5.248,5.248,0,1,1,10.483,0Zm47.842,0a5.494,5.494,0,0,1-3.6,5.218,5.178,5.178,0,0,1-1.658.27,5.075,5.075,0,0,1-4.25-2.191L99.383,82.459v25.722a5.244,5.244,0,1,1-10.475,0V66.441a5.471,5.471,0,0,1,3.583-5.209,4.666,4.666,0,0,1,1.617-.287,5.314,5.314,0,0,1,4.125,2.226l20.517,29.14V66.441a5.256,5.256,0,1,1,10.5,0ZM161.375,81.8a5.524,5.524,0,0,1,0,11.035H146.75v9.844h14.625a5.515,5.515,0,0,1,0,11.018H141.492a5.4,5.4,0,0,1-5.225-5.5V66.441a5.4,5.4,0,0,1,5.25-5.513H161.4a5.52,5.52,0,0,1-.025,11.026H146.75V81.8Z" transform="translate(0 -0.5)"/></svg>