<svg xmlns="http://www.w3.org/2000/svg" width="326.576" height="198.628" viewBox="0 0 326.576 198.628"><defs><style>.a{fill:#e74c3c;}</style></defs><g transform="translate(-624 -1125.909)"><g transform="translate(624 1071.818)"><path class="a" d="M298.47,57.667,163.3,157.362,28.134,57.655c-6.444-4.752-16.869-4.752-23.313,0-6.428,4.752-6.428,12.451,0,17.2l146.817,108.3h0c6.428,4.752,16.869,4.752,23.3,0l146.817-108.3c6.428-4.752,6.428-12.463,0-17.215C315.34,52.915,304.9,52.915,298.47,57.667Z"/></g><g transform="translate(624 1071.818)"><path class="a" d="M298.47,57.667,163.3,157.362,28.134,57.655c-6.444-4.752-16.869-4.752-23.313,0-6.428,4.752-6.428,12.451,0,17.2l146.817,108.3h0c6.428,4.752,16.869,4.752,23.3,0l146.817-108.3c6.428-4.752,6.428-12.463,0-17.215C315.34,52.915,304.9,52.915,298.47,57.667Z"/></g><g transform="translate(624 1137.818)"><path class="a" d="M298.47,57.667,163.3,157.362,28.134,57.655c-6.444-4.752-16.869-4.752-23.313,0-6.428,4.752-6.428,12.451,0,17.2l146.817,108.3h0c6.428,4.752,16.869,4.752,23.3,0l146.817-108.3c6.428-4.752,6.428-12.463,0-17.215C315.34,52.915,304.9,52.915,298.47,57.667Z"/></g><g transform="translate(624 1137.818)"><path class="a" d="M298.47,57.667,163.3,157.362,28.134,57.655c-6.444-4.752-16.869-4.752-23.313,0-6.428,4.752-6.428,12.451,0,17.2l146.817,108.3h0c6.428,4.752,16.869,4.752,23.3,0l146.817-108.3c6.428-4.752,6.428-12.463,0-17.215C315.34,52.915,304.9,52.915,298.47,57.667Z"/></g></g></svg>