<svg xmlns="http://www.w3.org/2000/svg" width="97.032" height="109.787" viewBox="0 0 97.032 109.787"><defs><style>.a,.d{fill:none;}.a{stroke:#e74c3c;stroke-width:5px;}.b{fill:#fcfeff;stroke:#fcfeff;}.c{stroke:none;}</style></defs><g transform="translate(-541.097 -437.732)"><path class="a" d="M662,300.956v68.556h92.032V313.075H708.146l-3.2-12.119Z" transform="translate(-118.403 175.507)"/><path class="a" d="M692.5,304.937V270.532h60.176v46.141" transform="translate(-123.3 169.7)"/><g class="b" transform="translate(581 453)"><rect class="c" width="37" height="6" rx="3"/><rect class="d" x="0.5" y="0.5" width="36" height="5" rx="2.5"/></g><g class="b" transform="translate(581 463)"><rect class="c" width="37" height="6" rx="3"/><rect class="d" x="0.5" y="0.5" width="36" height="5" rx="2.5"/></g><g class="b" transform="translate(594 473)"><rect class="c" width="24" height="6" rx="3"/><rect class="d" x="0.5" y="0.5" width="23" height="5" rx="2.5"/></g><g class="b" transform="translate(593 530)"><rect class="c" width="36" height="7" rx="3.5"/><rect class="d" x="0.5" y="0.5" width="35" height="6" rx="3"/></g></g></svg>