<svg xmlns="http://www.w3.org/2000/svg" width="107" height="130" viewBox="0 0 107 130"><defs><style>.a,.b,.f{fill:none;}.b{stroke:#e74c3c;stroke-width:5px;}.c{fill:#fcfeff;stroke:#fcfeff;}.d,.e{stroke:none;}.e{fill:#e74c3c;}</style></defs><g transform="translate(-426 -428)"><g class="a" transform="translate(426 428)"><path class="d" d="M20,0H80.8c1.312,0,25.852,19.677,25.852,21.127L107,110a20,20,0,0,1-20,20H20A20,20,0,0,1,0,110V20A20,20,0,0,1,20,0Z"/><path class="e" d="M 20 5 C 15.99335479736328 5 12.22652435302734 6.560272216796875 9.393394470214844 9.393394470214844 C 6.560272216796875 12.22652435302734 5 15.99335479736328 5 20 L 5 110 C 5 114.0066452026367 6.560272216796875 117.7734832763672 9.393394470214844 120.6066055297852 C 12.22652435302734 123.4397277832031 15.99335479736328 125 20 125 L 87 125 C 91.00664520263672 125 94.77348327636719 123.4397277832031 97.60660552978516 120.6066055297852 C 100.4378280639648 117.7753829956055 101.9979019165039 114.0114440917969 102 110.0078125 L 101.6628723144531 22.94314575195313 C 100.1302185058594 21.4754638671875 96.63038635253906 18.39823150634766 90.89889526367188 13.76262664794922 C 85.23629760742188 9.182731628417969 81.18798828125 6.146308898925781 79.50944519042969 5 L 20 5 M 20 0 L 80.80414581298828 0 C 82.11608123779297 0 106.655876159668 19.67694091796875 106.655876159668 21.12697601318359 L 107 110 C 107 121.0456848144531 98.04568481445313 130 87 130 L 20 130 C 8.954315185546875 130 0 121.0456848144531 0 110 L 0 20 C 0 8.954315185546875 8.954315185546875 0 20 0 Z"/></g><path class="b" d="M628.873,409v23.536h28.165" transform="translate(-124.369 19)"/><g class="c" transform="translate(444 449)"><rect class="d" width="49" height="6" rx="3"/><rect class="f" x="0.5" y="0.5" width="48" height="5" rx="2.5"/></g><g class="c" transform="translate(444 469)"><rect class="d" width="17" height="6" rx="3"/><rect class="f" x="0.5" y="0.5" width="16" height="5" rx="2.5"/></g><g class="c" transform="translate(444 489)"><rect class="d" width="73" height="6" rx="3"/><rect class="f" x="0.5" y="0.5" width="72" height="5" rx="2.5"/></g><g class="c" transform="translate(444 509)"><rect class="d" width="47" height="6" rx="3"/><rect class="f" x="0.5" y="0.5" width="46" height="5" rx="2.5"/></g><g class="c" transform="translate(444 529)"><rect class="d" width="73" height="6" rx="3"/><rect class="f" x="0.5" y="0.5" width="72" height="5" rx="2.5"/></g><g class="c" transform="translate(463 469)"><rect class="d" width="54" height="6" rx="3"/><rect class="f" x="0.5" y="0.5" width="53" height="5" rx="2.5"/></g><g class="c" transform="translate(493 509)"><rect class="d" width="24" height="6" rx="3"/><rect class="f" x="0.5" y="0.5" width="23" height="5" rx="2.5"/></g></g></svg>