<svg xmlns="http://www.w3.org/2000/svg" width="163" height="83.355" viewBox="0 0 163 83.355"><defs><style>.a{fill:#fcfeff;stroke:#fcfeff;}.b,.d{fill:none;}.c,.e{stroke:none;}.e{fill:#e74c3c;}</style></defs><g transform="translate(-817 -867)"><g class="a" transform="translate(836 906)"><circle class="c" cx="5" cy="5" r="5"/><circle class="d" cx="5" cy="5" r="4.5"/></g><g transform="translate(137 447)"><g class="b" transform="translate(755 420)"><path class="c" d="M20,0H68C79.046,0,88,8.311,88,18.563V29.7c0,10.252-8.954,18.563-20,18.563H52.675L43.8,62.916,35.958,48.264H8.113c-.063-9.66.082,3.639,0-2.43s.137-8.376-1.028-11.929a15.721,15.721,0,0,0-2.569-4.019A23.942,23.942,0,0,0,0,26.367v-7.8C0,8.311,8.954,0,20,0Z"/><path class="e" d="M 20 5 C 11.72896575927734 5 5 11.08439636230469 5 18.56314849853516 L 5 23.72622680664063 C 5.513160705566406 24.11058807373047 5.965164184570313 24.47123718261719 6.331520080566406 24.77359771728516 C 6.791748046875 25.15341567993164 7.218231201171875 25.52503204345703 7.564903259277344 25.84828186035156 C 8.600120544433594 26.81356811523438 9.134391784667969 27.78214263916016 9.371047973632813 28.67118072509766 C 9.186271667480469 27.93660354614258 8.846458435058594 27.28764724731445 8.431114196777344 26.79483032226563 C 8.448997497558594 26.81606674194336 8.470733642578125 26.84109878540039 8.495719909667969 26.87009811401367 C 9.051033020019531 27.51481628417969 10.52616882324219 29.22736358642578 11.68473052978516 31.94358062744141 L 11.76944732666016 32.14218139648438 L 11.83673095703125 32.34736633300781 C 13.04898071289063 36.04431533813477 13.06413269042969 38.67166519165039 13.08921813964844 43.02449798583984 C 13.08966827392578 43.10362243652344 13.09013366699219 43.18350982666016 13.09059906005859 43.26416397094727 L 35.95755004882813 43.26416397094727 L 38.95249938964844 43.26416397094727 L 40.36581802368164 45.90468215942383 L 44.0683708190918 52.82221984863281 L 48.39886856079102 45.67354583740234 L 49.85841751098633 43.26416397094727 L 52.67539978027344 43.26416397094727 L 68 43.26416397094727 C 76.27103424072266 43.26416397094727 83 37.17976379394531 83 29.70103073120117 L 83 18.56314849853516 C 83 11.08439636230469 76.27103424072266 5 68 5 L 20 5 M 20 0 L 68 0 C 79.04568481445313 0 88 8.310997009277344 88 18.56314849853516 L 88 29.70103073120117 C 88 39.95316314697266 79.04568481445313 48.26416397094727 68 48.26416397094727 L 52.67539978027344 48.26416397094727 L 43.79975128173828 62.91586303710938 L 35.95755004882813 48.26416397094727 L 8.113334655761719 48.26416397094727 C 8.095870971679688 45.56969833374023 8.094558715820313 44.66146850585938 8.099960327148438 44.6209716796875 C 8.103340148925781 45.00821304321289 8.10760498046875 45.41212463378906 8.113334655761719 45.83404541015625 C 8.129875183105469 47.05240631103516 8.137252807617188 47.49000549316406 8.138984680175781 47.49000549316406 C 8.143417358398438 47.49000549316406 8.110870361328125 44.618896484375 8.100349426269531 44.61957550048828 C 8.1002197265625 44.61958312988281 8.100090026855469 44.62002563476563 8.099960327148438 44.6209716796875 C 8.054794311523438 39.43793487548828 8.169609069824219 37.21103286743164 7.08563232421875 33.90528106689453 C 5.980583190917969 31.31454849243164 4.481201171875 29.95791625976563 4.516853332519531 29.88649749755859 C 4.552482604980469 29.81509780883789 2.338981628417969 27.78011322021484 0 26.36688232421875 L 0 18.56314849853516 C 0 8.310997009277344 8.954299926757813 0 20 0 Z"/></g><g class="b" transform="translate(680 440)"><path class="c" d="M20,0H68C79.046,0,88,8.311,88,18.563V29.7c0,10.252-8.954,18.563-20,18.563H52.675L43.7,63.355,35.958,48.264H20C8.954,48.264,0,39.953,0,29.7V18.563C0,8.311,8.954,0,20,0Z"/><path class="e" d="M 20 5.000003814697266 C 11.72896575927734 5.000003814697266 5 11.08440399169922 5 18.56313705444336 L 5 29.70101928710938 C 5 37.17977142333984 11.72896575927734 43.26416778564453 20 43.26416778564453 L 35.95755004882813 43.26416778564453 L 39.01213455200195 43.26416778564453 L 40.40634918212891 45.98201751708984 L 44.0222282409668 53.03075408935547 L 48.37821578979492 45.70796966552734 L 49.83191680908203 43.26416778564453 L 52.67539978027344 43.26416778564453 L 68 43.26416778564453 C 76.27103424072266 43.26416778564453 83 37.17977142333984 83 29.70101928710938 L 83 18.56313705444336 C 83 11.08440399169922 76.27103424072266 5.000003814697266 68 5.000003814697266 L 20 5.000003814697266 M 20 3.814697265625e-06 L 68 3.814697265625e-06 C 79.04568481445313 3.814697265625e-06 88 8.311004638671875 88 18.56313705444336 L 88 29.70101928710938 C 88 39.95317077636719 79.04568481445313 48.26416778564453 68 48.26416778564453 L 52.67539978027344 48.26416778564453 L 43.69873428344727 63.35470199584961 L 35.95755004882813 48.26416778564453 L 20 48.26416778564453 C 8.954299926757813 48.26416778564453 0 39.95317077636719 0 29.70101928710938 L 0 18.56313705444336 C 0 8.311004638671875 8.954299926757813 3.814697265625e-06 20 3.814697265625e-06 Z"/></g><g class="a" transform="translate(774 440)"><circle class="c" cx="5" cy="5" r="5"/><circle class="d" cx="5" cy="5" r="4.5"/></g><g class="a" transform="translate(719 459)"><circle class="c" cx="5" cy="5" r="5"/><circle class="d" cx="5" cy="5" r="4.5"/></g><g class="a" transform="translate(739 459)"><circle class="c" cx="5" cy="5" r="5"/><circle class="d" cx="5" cy="5" r="4.5"/></g><g class="a" transform="translate(794 440)"><circle class="c" cx="5" cy="5" r="5"/><circle class="d" cx="5" cy="5" r="4.5"/></g><g class="a" transform="translate(814 440)"><circle class="c" cx="5" cy="5" r="5"/><circle class="d" cx="5" cy="5" r="4.5"/></g></g></g></svg>