<svg xmlns="http://www.w3.org/2000/svg" width="227.67" height="231.002" viewBox="0 0 227.67 231.002"><defs><style>.a,.b,.f{fill:none;}.a,.d{stroke:#3498db;}.a,.b{stroke-width:15px;}.b,.c{stroke:#e74c3c;}.c{fill:#e74c3c;}.d{fill:#3498db;}.e{stroke:none;}</style></defs><g transform="translate(-569.253 -264)"><g transform="translate(109 -72)"><g class="a" transform="translate(524 336)"><circle class="e" cx="50" cy="50" r="50"/><circle class="f" cx="50" cy="50" r="42.5"/></g><path class="b" d="M339.964,491.974c-4.127-18.206-3.353-46.765,23.475-82.721s40.826,8.105,80.809,8.105,50.749-42.7,79.125-8.105,29.339,63.247,26.052,82.721-18.856,18.4-45.414,18.061-32.677-18.061-59.763-18.061-34.505,18.411-65.063,18.061S344.092,510.179,339.964,491.974Z" transform="translate(129.725 41.223)"/></g><g transform="translate(0 -105)"><path class="c" d="M605.937,417.247s-2.916,36.187,2.077,48.644a8.957,8.957,0,0,0,8.071,5.813s4.972.584,7.325-5.813c4.474-12.161,2.5-48.644,2.5-48.644Z" transform="translate(66.994 127.771)"/><g class="d" transform="translate(663.422 508.771)"><ellipse class="e" cx="20" cy="21" rx="20" ry="21"/><ellipse class="f" cx="20" cy="21" rx="19.5" ry="20.5"/></g></g></g></svg>