<svg xmlns="http://www.w3.org/2000/svg" width="300" height="230.414" viewBox="0 0 300 230.414"><defs><style>.a,.b,.d{fill:none;}.b{stroke:#e74c3c;}.b,.d{stroke-width:15px;}.c,.f{fill:#3498db;}.d{stroke:#3498db;}.e,.f{stroke:none;}</style></defs><g transform="translate(-427 -181.485)"><g class="a" transform="translate(427 220)"><path class="e" d="M30,0H270c16.569,0,30,14.319,30,31.983V159.916c0,17.664-13.431,31.983-30,31.983H30c-16.569,0-30-14.319-30-31.983V31.983C0,14.319,13.431,0,30,0Z"/><path class="f" d="M 30 14.99998474121094 C 21.72894287109375 14.99998474121094 15 22.61862182617188 15 31.983154296875 L 15 159.9158782958984 C 15 169.2804107666016 21.72894287109375 176.8990478515625 30 176.8990478515625 L 270 176.8990478515625 C 278.2710571289063 176.8990478515625 285 169.2804107666016 285 159.9158782958984 L 285 31.983154296875 C 285 22.61862182617188 278.2710571289063 14.99998474121094 270 14.99998474121094 L 30 14.99998474121094 M 30 -1.52587890625e-05 L 270 -1.52587890625e-05 C 286.5685119628906 -1.52587890625e-05 300 14.31935119628906 300 31.983154296875 L 300 159.9158782958984 C 300 177.5796813964844 286.5685119628906 191.8990478515625 270 191.8990478515625 L 30 191.8990478515625 C 13.43148803710938 191.8990478515625 0 177.5796813964844 0 159.9158782958984 L 0 31.983154296875 C 0 14.31935119628906 13.43148803710938 -1.52587890625e-05 30 -1.52587890625e-05 Z"/></g><path class="b" d="M463.615,258.331s-2.737,59.439,37.863,66.658c20.27,5.688,41.038,6,61.917,5.749,21.425-.262,44-.942,62.573-5.749,35.433-10.024,36.953-66.658,36.953-66.658" transform="translate(13.112 -10.848)"/><g class="c" transform="translate(562.435 247.227)"><path class="e" d="M 15 29.5 C 11.12691020965576 29.5 7.485640048980713 27.99173927307129 4.746950149536133 25.25304985046387 C 2.008260011672974 22.51436042785645 0.5 18.87309074401855 0.5 15 C 0.5 11.12691020965576 2.008260011672974 7.485640048980713 4.746950149536133 4.746950149536133 C 7.485640048980713 2.008260011672974 11.12691020965576 0.5 15 0.5 C 18.87309074401855 0.5 22.51436042785645 2.008260011672974 25.25304985046387 4.746950149536133 C 27.99173927307129 7.485640048980713 29.5 11.12691020965576 29.5 15 C 29.5 18.87309074401855 27.99173927307129 22.51436042785645 25.25304985046387 25.25304985046387 C 22.51436042785645 27.99173927307129 18.87309074401855 29.5 15 29.5 Z"/><path class="f" d="M 15 1 C 11.26046943664551 1 7.744760513305664 2.456249237060547 5.100509643554688 5.100509643554688 C 2.456249237060547 7.744760513305664 1 11.26046943664551 1 15 C 1 18.73952865600586 2.456249237060547 22.25523948669434 5.100509643554688 24.89949035644531 C 7.744760513305664 27.54375076293945 11.26046943664551 29 15 29 C 18.73952865600586 29 22.25523948669434 27.54375076293945 24.89949035644531 24.89949035644531 C 27.54375076293945 22.25523948669434 29 18.73952865600586 29 15 C 29 11.26046943664551 27.54375076293945 7.744760513305664 24.89949035644531 5.100509643554688 C 22.25523948669434 2.456249237060547 18.73952865600586 1 15 1 M 15 0 C 23.28426933288574 0 30 6.715730667114258 30 15 C 30 23.28426933288574 23.28426933288574 30 15 30 C 6.715730667114258 30 0 23.28426933288574 0 15 C 0 6.715730667114258 6.715730667114258 0 15 0 Z"/></g><path class="d" d="M562.181,169.114s-4.72-15.316,17-29.344,63.3-12.334,82.992,0,15.556,29.344,15.556,29.344" transform="translate(-43.76 59.112)"/></g></svg>