<svg xmlns="http://www.w3.org/2000/svg" width="419.63" height="367" viewBox="0 0 419.63 367"><defs><style>.a,.b,.d{fill:none;}.a{stroke:#3498db;}.a,.b{stroke-width:15px;}.b{stroke:#e74c3c;}.c{stroke:none;}</style></defs><g transform="translate(-344.37 -203)"><g transform="translate(-15 -66)"><g class="a" transform="translate(534 369)"><circle class="c" cx="40" cy="40" r="40"/><circle class="d" cx="40" cy="40" r="32.5"/></g><path class="b" d="M339.249,450.242c-2.537-10.36-2.061-26.613,14.427-47.074s25.09,4.612,49.663,4.612,31.189-24.3,48.628-4.612S470,439.16,467.978,450.242s-11.588,10.469-27.91,10.278-20.083-10.278-36.729-10.278-21.206,10.477-39.986,10.278S341.786,460.6,339.249,450.242Z" transform="translate(170.725 57.864)"/></g><g class="a" transform="translate(434 253)"><circle class="c" cx="125" cy="125" r="125"/><circle class="d" cx="125" cy="125" r="117.5"/></g><path class="a" d="M839.737,271.862s47.213-11.584,65.058,0,12.9,54.118,12.9,54.118" transform="translate(-171.786 73.319)"/><path class="a" d="M513.779,154.505s-50.891,9.995-66.656,0,3.593-39.979,3.593-39.979" transform="translate(-23.779 128.942)"/><path class="a" d="M468.966,446s-19.324,56.848-49.45,56.848c-19.34,0-34.705-17.715-43.373-30.616a108.116,108.116,0,0,1-7.232-12.365" transform="matrix(0.848, 0.53, -0.53, 0.848, 307.701, -184.744)"/><path class="a" d="M789.507,536.749s35.553,3.691,45.732,18.808-5.016,41.658-5.016,41.658" transform="translate(-150.837 -72.941)"/><path class="a" d="M493.038,539.3s23.99,29.993,14.656,45.556-47.9,14.518-47.9,14.518" transform="translate(22.383 -54.385)"/><g class="a" transform="translate(440 520)"><circle class="c" cx="25" cy="25" r="25"/><circle class="d" cx="25" cy="25" r="17.5"/></g><path class="a" d="M780.077,150.346s3.918-29.163,34.065-43.372,67.35,0,67.35,0" transform="translate(-215.077 111.791)"/><g class="a" transform="translate(356 353)"><circle class="c" cx="25" cy="25" r="25"/><circle class="d" cx="25" cy="25" r="17.5"/></g><g class="a" transform="translate(648 520)"><circle class="c" cx="25" cy="25" r="25"/><circle class="d" cx="25" cy="25" r="17.5"/></g><g class="a" transform="translate(714 392)"><circle class="c" cx="25" cy="25" r="25"/><circle class="d" cx="25" cy="25" r="17.5"/></g><g class="a" transform="translate(656 205)"><circle class="c" cx="25" cy="25" r="25"/><circle class="d" cx="25" cy="25" r="17.5"/></g><g class="a" transform="translate(406 203)"><circle class="c" cx="25" cy="25" r="25"/><circle class="d" cx="25" cy="25" r="17.5"/></g></g></svg>