<svg xmlns="http://www.w3.org/2000/svg" width="229.325" height="406.212" viewBox="0 0 229.325 406.212"><defs><style>.a,.b,.e{fill:none;}.a{stroke:#3498db;}.a,.b{stroke-width:15px;}.b,.c{stroke:#e74c3c;}.c{fill:#e74c3c;}.d{stroke:none;}</style></defs><g transform="translate(-729.599 -158.626)"><g transform="translate(271 6)"><g class="a" transform="translate(524 336)"><circle class="d" cx="50" cy="50" r="50"/><circle class="e" cx="50" cy="50" r="42.5"/></g><path class="b" d="M339.964,491.974c-4.127-18.206-3.353-46.765,23.475-82.721s40.826,8.105,80.809,8.105,50.749-42.7,79.125-8.105,29.339,63.247,26.052,82.721-18.856,18.4-45.414,18.061-32.677-18.061-59.763-18.061-34.505,18.411-65.063,18.061S344.092,510.179,339.964,491.974Z" transform="translate(129.725 41.223)"/></g><g class="c" transform="translate(784 199)"><rect class="d" width="117" height="14" rx="7"/><rect class="e" x="0.5" y="0.5" width="116" height="13" rx="6.5"/></g><g class="c" transform="translate(784 225)"><rect class="d" width="117" height="14" rx="7"/><rect class="e" x="0.5" y="0.5" width="116" height="13" rx="6.5"/></g><g class="c" transform="translate(784 251)"><rect class="d" width="117" height="14" rx="7"/><rect class="e" x="0.5" y="0.5" width="116" height="13" rx="6.5"/></g><path class="a" d="M845.5,321.019c-1.195-6.313-11.883-22.1-17.294-24.321s-22.547-3.187-45.883-9-31.228-18.988-39.863-34.8-5.479-36.354,0-48.6,17.186-26.321,39.863-32.4,60.14-5.732,60.14-5.732,40.585-.694,61.209,5.732,27.215,18.042,35.174,32.4,10.664,31.945,8.793,48.6-8.951,27.634-27.44,34.8-41.487-.049-56.368,9S846.695,327.332,845.5,321.019Z"/></g></svg>