<svg xmlns="http://www.w3.org/2000/svg" width="415.149" height="414.967" viewBox="0 0 415.149 414.967"><g transform="translate(-776.253 -117.626)"><g transform="translate(998 160.625)" fill="#e74c3c" stroke="#e74c3c" stroke-width="1"><rect width="140" height="14" rx="7" stroke="none"/><rect x="0.5" y="0.5" width="139" height="13" rx="6.5" fill="none"/></g><g transform="translate(996 189.61)" fill="#e74c3c" stroke="#e74c3c" stroke-width="1"><rect width="140" height="14" rx="7" stroke="none"/><rect x="0.5" y="0.5" width="139" height="13" rx="6.5" fill="none"/></g><path d="M781.186,388.57c-5.961-2.589,31.44-73.951,5.733-80.727s-34.4-22.135-43.914-40.567-6.036-42.379,0-56.654,18.933-30.683,43.914-37.77,66.252-6.682,66.252-6.682,44.71-.809,67.43,6.682,29.981,21.032,38.749,37.77,11.748,37.239,9.687,56.654-9.861,32.214-30.229,40.567-45.7-.057-62.1,10.492S787.147,391.159,781.186,388.57Z" transform="translate(214.172 -41)" fill="none" stroke="#3498db" stroke-width="15"/><g transform="translate(783.834 309.754)"><g transform="translate(56.166)" fill="none" stroke="#3498db" stroke-width="15"><circle cx="50" cy="50" r="50" stroke="none"/><circle cx="50" cy="50" r="42.5" fill="none"/></g><path d="M339.964,491.974c-4.127-18.206-3.353-46.765,23.475-82.721s40.826,8.105,80.809,8.105,50.749-42.7,79.125-8.105,29.339,63.247,26.052,82.721-18.856,18.4-45.414,18.061-32.677-18.061-59.763-18.061-34.505,18.411-65.063,18.061S344.092,510.179,339.964,491.974Z" transform="translate(-338.109 -294.777)" fill="none" stroke="#e74c3c" stroke-width="15"/></g><g transform="translate(996 218.61)" fill="#e74c3c" stroke="#e74c3c" stroke-width="1"><rect width="140" height="14" rx="7" stroke="none"/><rect x="0.5" y="0.5" width="139" height="13" rx="6.5" fill="none"/></g></g></svg>