<svg xmlns="http://www.w3.org/2000/svg" width="145" height="99.355" viewBox="0 0 145 99.355"><defs><style>.a,.e{fill:none;}.b{fill:#fcfeff;stroke:#fcfeff;}.c,.d{stroke:none;}.d{fill:#e74c3c;}</style></defs><g transform="translate(-820 -855)"><g class="a" transform="translate(820 891)"><path class="c" d="M20,0H68C79.046,0,88,8.311,88,18.563V29.7c0,10.252-8.954,18.563-20,18.563H52.675L43.7,63.355,35.958,48.264H20C8.954,48.264,0,39.953,0,29.7V18.563C0,8.311,8.954,0,20,0Z"/><path class="d" d="M 20 5.000003814697266 C 11.72896575927734 5.000003814697266 5 11.08440399169922 5 18.56313705444336 L 5 29.70101928710938 C 5 37.17977142333984 11.72896575927734 43.26416778564453 20 43.26416778564453 L 35.95755004882813 43.26416778564453 L 39.01213455200195 43.26416778564453 L 40.40634918212891 45.98201751708984 L 44.0222282409668 53.03075408935547 L 48.37821578979492 45.70796966552734 L 49.83191680908203 43.26416778564453 L 52.67539978027344 43.26416778564453 L 68 43.26416778564453 C 76.27103424072266 43.26416778564453 83 37.17977142333984 83 29.70101928710938 L 83 18.56313705444336 C 83 11.08440399169922 76.27103424072266 5.000003814697266 68 5.000003814697266 L 20 5.000003814697266 M 20 3.814697265625e-06 L 68 3.814697265625e-06 C 79.04568481445313 3.814697265625e-06 88 8.311004638671875 88 18.56313705444336 L 88 29.70101928710938 C 88 39.95317077636719 79.04568481445313 48.26416778564453 68 48.26416778564453 L 52.67539978027344 48.26416778564453 L 43.69873428344727 63.35470199584961 L 35.95755004882813 48.26416778564453 L 20 48.26416778564453 C 8.954299926757813 48.26416778564453 0 39.95317077636719 0 29.70101928710938 L 0 18.56313705444336 C 0 8.311004638671875 8.954299926757813 3.814697265625e-06 20 3.814697265625e-06 Z"/></g><g transform="translate(-3 -69)"><g class="b" transform="translate(842 979)"><circle class="c" cx="5" cy="5" r="5"/><circle class="e" cx="5" cy="5" r="4.5"/></g><g class="b" transform="translate(862 979)"><circle class="c" cx="5" cy="5" r="5"/><circle class="e" cx="5" cy="5" r="4.5"/></g><g class="b" transform="translate(882 979)"><circle class="c" cx="5" cy="5" r="5"/><circle class="e" cx="5" cy="5" r="4.5"/></g></g><g transform="translate(-21 -85)"><g class="b" transform="translate(917 960)"><circle class="c" cx="5" cy="5" r="5"/><circle class="e" cx="5" cy="5" r="4.5"/></g><g class="b" transform="translate(937 960)"><circle class="c" cx="5" cy="5" r="5"/><circle class="e" cx="5" cy="5" r="4.5"/></g><g class="b" transform="translate(957 960)"><circle class="c" cx="5" cy="5" r="5"/><circle class="e" cx="5" cy="5" r="4.5"/></g></g><g class="a" transform="translate(877 855)"><path class="c" d="M20,0H68C79.046,0,88,8.311,88,18.563V29.7c0,10.252-8.954,18.563-20,18.563H52.675L43.8,62.916,35.958,48.264H24.436C17.738,39.609,13.48,41.092,0,40.93c.053-1.225,5.415-2.151,5.528-1.461,0,0-3.866-2.728-4.709-5.6A33.1,33.1,0,0,1,0,26.367v-7.8C0,8.311,8.954,0,20,0Z"/><path class="d" d="M 20 5 C 11.72896575927734 5 5 11.08439636230469 5 18.56314849853516 L 5 26.36688232421875 L 5.000015258789063 26.37604904174805 L 4.999946594238281 26.38919830322266 C 4.994422912597656 27.90536499023438 5.156196594238281 30.89017105102539 5.613677978515625 32.45571517944336 C 5.766120910644531 32.88557815551758 6.646453857421875 33.97634887695313 7.956756591796875 35.03324127197266 C 8.383087158203125 35.28253173828125 8.767250061035156 35.58540344238281 9.100845336914063 35.93286895751953 C 16.09616088867188 36.02403259277344 21.17061614990234 36.91234588623047 26.78907012939453 43.26416397094727 L 35.95755004882813 43.26416397094727 L 38.95249938964844 43.26416397094727 L 40.36581420898438 45.90468215942383 L 44.0683708190918 52.82221984863281 L 48.39886474609375 45.67354583740234 L 49.85841751098633 43.26416397094727 L 52.67539978027344 43.26416397094727 L 68 43.26416397094727 C 76.27103424072266 43.26416397094727 83 37.17976379394531 83 29.70103073120117 L 83 18.56314849853516 C 83 11.08439636230469 76.27103424072266 5 68 5 L 20 5 M 20 0 L 68 0 C 79.04568481445313 0 88 8.310997009277344 88 18.56314849853516 L 88 29.70103073120117 C 88 39.95316314697266 79.04568481445313 48.26416397094727 68 48.26416397094727 L 52.67539978027344 48.26416397094727 L 43.79974746704102 62.91586303710938 L 35.95755004882813 48.26416397094727 L 24.43573379516602 48.26416397094727 C 19.18110656738281 41.47436904907227 15.42762756347656 40.923828125 7.546287536621094 40.923828125 C 6.021896362304688 40.923828125 4.341583251953125 40.94441986083984 2.467536926269531 40.94441986083984 C 1.679779052734375 40.94441986083984 0.8597640991210938 40.94080352783203 0 40.93048095703125 C 0.040435791015625 39.99464416503906 3.177513122558594 39.23354339599609 4.7078857421875 39.23348999023438 C 4.944419860839844 39.23348236083984 5.142425537109375 39.25164031982422 5.284835815429688 39.29015731811523 C 5.438575744628906 39.40653991699219 5.527534484863281 39.46929931640625 5.527534484863281 39.46929931640625 C 5.514175415039063 39.38773345947266 5.427467346191406 39.3287353515625 5.284835815429688 39.29015731811523 C 4.424552917480469 38.638916015625 1.533317565917969 36.30664825439453 0.8183517456054688 33.87165069580078 C -0.0243682861328125 31.00149726867676 0 26.36688232421875 0 26.36688232421875 L 0 18.56314849853516 C 0 8.310997009277344 8.954299926757813 0 20 0 Z"/></g></g></svg>